<?xml version="1.0" encoding="utf-8"?>
<!-- Generator: Adobe Illustrator 16.0.0, SVG Export Plug-In . SVG Version: 6.00 Build 0)  -->
<!DOCTYPE svg PUBLIC "-//W3C//DTD SVG 1.1//EN" "http://www.w3.org/Graphics/SVG/1.1/DTD/svg11.dtd">
<svg version="1.1" id="Layer_1" xmlns="http://www.w3.org/2000/svg" xmlns:xlink="http://www.w3.org/1999/xlink" x="0px" y="0px"
	 width="638px" height="325px" viewBox="0 0 638 325" enable-background="new 0 0 638 325" xml:space="preserve">
<g>
	<rect y="-24" fill="#458280" width="638" height="435"/>
</g>
<g>
	<g>
		<path fill="#FFD324" d="M241.494,122.251c-1.812,21.827-16.347,36.549-23.752,48.301c-7.056,11.124-18.588,40.213-18.588,40.213
			c-13.291,0-16.895-0.006-41.911,0c0,0-10.36-27.3-18.312-40.544c-7.141-11.88-21.757-26.71-23.31-48.519
			c-1.602-21.429,12.152-64.06,63.238-63.801C229.886,58.164,243.263,100.886,241.494,122.251z"/>
		<g>
			<g>
				<path fill="#FFFFFF" d="M173.869,212.176h-1.527v-47.74c-0.642,0.016-1.363,0.048-2.142,0.083
					c-5.521,0.247-13.862,0.615-18.221-3.597c-1.91-1.846-2.861-4.395-2.828-7.576c0.047-4.477,2.588-7.717,6.972-8.889
					c5.414-1.448,13.388,0.68,16.619,6.159c1.214,2.056,1.168,6.251,1.135,9.313c-0.004,0.43-0.009,0.83-0.009,1.187v1.79
					l4.873,0.055l-0.016,1.526l-4.857-0.054V212.176z M159.76,145.532c-1.14,0-2.239,0.133-3.243,0.401
					c-2.157,0.577-5.784,2.309-5.839,7.429c-0.028,2.783,0.744,4.896,2.362,6.461c3.886,3.757,11.832,3.404,17.092,3.17
					c0.803-0.036,1.547-0.068,2.21-0.085v-1.792c0-0.363,0.004-0.768,0.009-1.204c0.028-2.72,0.073-6.831-0.924-8.521
					C169.141,147.517,164.158,145.532,159.76,145.532z"/>
			</g>
			<g>
				<path fill="#FFFFFF" d="M185.126,212.176h-1.527v-47.742l-4.857,0.054l-0.016-1.526l4.873-0.055v-1.79
					c0-0.357-0.004-0.757-0.009-1.187c-0.033-3.062-0.079-7.257,1.135-9.313c3.231-5.479,11.206-7.606,16.62-6.159
					c4.384,1.172,6.924,4.412,6.971,8.889c0.034,3.181-0.918,5.729-2.828,7.576c-4.359,4.213-12.698,3.845-18.221,3.597
					c-0.777-0.034-1.498-0.066-2.142-0.083V212.176z M185.126,162.909c0.666,0.016,1.408,0.048,2.21,0.084
					c5.258,0.233,13.205,0.587,17.091-3.17c1.619-1.564,2.393-3.678,2.363-6.461c-0.053-5.12-3.681-6.853-5.838-7.429
					c-4.886-1.306-12.032,0.579-14.912,5.459c-0.997,1.69-0.952,5.801-0.924,8.521c0.004,0.436,0.009,0.841,0.009,1.204V162.909z"/>
			</g>
		</g>
		<g>
			<path fill="#1D1D1B" d="M199.154,210.765h-41.911c0,16.91-0.04-8.353-0.04,8.935c-0.001,0.026-0.015,0.048-0.015,0.074
				l0.001,0.377c0,0.024,0.013,0.044,0.014,0.067c0,2.225,0,4.554,0,6.683v0.001v0.062c0,3.518,0.004,6.473,0,7.442
				c-0.028,6.801,7.908,8.701,10.269,8.851c0.962,0.005,2.099,0.011,2.099,0.011c0.464,3.184,3.258,5.633,8.612,5.622
				c5.345-0.012,8.129-2.464,8.587-5.642c1.582,0,1.557,0,2.059,0c2.524,0,10.33-1.601,10.258-8.929
				C199.059,231.554,199.14,213.78,199.154,210.765z"/>
			<g>
				<path fill="#D78A00" d="M158.008,234.491l40.029,0.658c0.534,0.006,0.961,0.34,0.961,0.728c-0.012,0.399-0.452,0.71-0.985,0.697
					l-40.03-0.651c-0.54-0.014-0.969-0.342-0.958-0.734C157.035,234.789,157.469,234.478,158.008,234.491z"/>
				<path fill="#D78A00" d="M158.083,229.725l40.036,0.659c0.533,0.011,0.962,0.34,0.952,0.733
					c-0.002,0.395-0.443,0.704-0.976,0.698l-40.036-0.659c-0.533-0.013-0.961-0.341-0.953-0.734
					C157.108,230.029,157.55,229.712,158.083,229.725z"/>
				<path fill="#D78A00" d="M158.158,224.956l40.034,0.667c0.542,0,0.969,0.335,0.96,0.728c-0.011,0.393-0.443,0.704-0.985,0.697
					l-40.027-0.665c-0.541-0.007-0.964-0.326-0.962-0.722C157.186,225.255,157.631,224.952,158.158,224.956z"/>
				<path fill="#D78A00" d="M158.239,220.191l40.036,0.659c0.531,0.019,0.963,0.334,0.958,0.734
					c-0.009,0.394-0.449,0.703-0.983,0.697l-40.036-0.659c-0.533-0.013-0.962-0.34-0.953-0.727
					C157.263,220.502,157.706,220.186,158.239,220.191z"/>
				<path fill="#D78A00" d="M158.321,215.425l40.035,0.666c0.533,0.005,0.96,0.341,0.953,0.728c-0.001,0.395-0.444,0.71-0.978,0.698
					l-40.034-0.66c-0.533-0.011-0.963-0.334-0.96-0.734C157.347,215.729,157.787,215.42,158.321,215.425z"/>
			</g>
		</g>
		<g>
			<path fill="#FFFFFF" d="M124.557,126.087c-1.456-19.48,10.439-57.334,53.841-60.521c-1.691-0.135-3.417-0.232-5.222-0.241
				c-41.72-0.211-52.952,34.604-51.644,52.104c0.411,5.767,1.948,10.928,4.026,15.611
				C125.083,130.805,124.729,128.495,124.557,126.087z"/>
			<path fill="#FFFFFF" d="M155.465,189.585c0.002,0.005,0.017,0.043,0.017,0.043h0.002
				C155.478,189.614,155.471,189.6,155.465,189.585z"/>
		</g>
	</g>
	<g>
		<g>
			<path fill="#FFD324" d="M178.734,50.091c-1.025,0-1.855-0.831-1.855-1.855V14.873c0-1.024,0.83-1.855,1.855-1.855
				s1.855,0.831,1.855,1.855v33.363C180.589,49.26,179.759,50.091,178.734,50.091z"/>
		</g>
		<g>
			<path fill="#FFD324" d="M142.031,59.927c-0.642,0-1.265-0.333-1.609-0.927L123.74,30.105c-0.513-0.887-0.208-2.022,0.679-2.534
				c0.886-0.515,2.021-0.208,2.533,0.678l16.682,28.894c0.513,0.887,0.208,2.022-0.679,2.534
				C142.664,59.847,142.345,59.927,142.031,59.927z"/>
		</g>
		<g>
			<path fill="#FFD324" d="M115.155,86.797c-0.314,0-0.633-0.08-0.925-0.249L85.336,69.867c-0.887-0.512-1.192-1.646-0.679-2.534
				c0.512-0.885,1.648-1.192,2.533-0.679l28.895,16.682c0.887,0.512,1.192,1.647,0.679,2.534
				C116.42,86.465,115.797,86.797,115.155,86.797z"/>
		</g>
		<g>
			<path fill="#FFD324" d="M105.321,123.503H71.958c-1.025,0-1.855-0.831-1.855-1.855c0-1.024,0.831-1.854,1.855-1.854h33.363
				c1.025,0,1.855,0.831,1.855,1.854C107.177,122.673,106.346,123.503,105.321,123.503z"/>
		</g>
		<g>
			<path fill="#FFD324" d="M86.266,176.892c-0.642,0-1.265-0.332-1.608-0.928c-0.513-0.887-0.208-2.021,0.679-2.533l28.894-16.682
				c0.886-0.514,2.021-0.208,2.533,0.679c0.513,0.887,0.208,2.022-0.679,2.534L87.19,176.643
				C86.899,176.812,86.58,176.892,86.266,176.892z"/>
		</g>
		<g>
			<path fill="#FFD324" d="M271.203,176.892c-0.314,0-0.634-0.08-0.925-0.249l-28.894-16.682c-0.887-0.512-1.192-1.646-0.679-2.534
				c0.512-0.886,1.648-1.191,2.533-0.679l28.893,16.682c0.887,0.512,1.192,1.646,0.679,2.533
				C272.467,176.559,271.844,176.892,271.203,176.892z"/>
		</g>
		<g>
			<path fill="#FFD324" d="M285.51,123.503h-33.364c-1.025,0-1.855-0.831-1.855-1.855c0-1.024,0.83-1.854,1.855-1.854h33.364
				c1.025,0,1.855,0.831,1.855,1.854C287.366,122.673,286.535,123.503,285.51,123.503z"/>
		</g>
		<g>
			<path fill="#FFD324" d="M242.314,86.797c-0.642,0-1.265-0.333-1.608-0.927c-0.513-0.887-0.208-2.022,0.679-2.534l28.894-16.682
				c0.886-0.514,2.021-0.208,2.533,0.679c0.513,0.887,0.208,2.022-0.679,2.534l-28.893,16.682
				C242.947,86.717,242.628,86.797,242.314,86.797z"/>
		</g>
		<g>
			<path fill="#FFD324" d="M215.438,59.927c-0.314,0-0.632-0.08-0.925-0.249c-0.887-0.512-1.192-1.647-0.679-2.534l16.681-28.894
				c0.512-0.886,1.644-1.19,2.533-0.679c0.887,0.512,1.192,1.647,0.679,2.534L217.047,59
				C216.704,59.594,216.08,59.927,215.438,59.927z"/>
		</g>
	</g>
</g>
<g>
	<g>
		<path fill="#ECC19C" d="M123.97,258.967c6.16-6.025,12.975-11.945,15.983-20.02c1.698-4.558,8.222-16.209,11.049-20.165
			c4.16,1.598,6.137,3.591,6.021,9.296c-0.402,19.875-4.415,20.464-8.129,29.641c-2.531,6.254-3.586,13.68-1.918,20.151
			c-13.275-1.974-27.284,1.161-41.169,1.126C111.565,272.048,117.522,265.275,123.97,258.967z"/>
		<path fill="#F5E0CD" d="M151.604,224.183l-2.919,5.565c-0.93,1.773-3.177,2.442-5.079,1.569c2.333-4.397,5.139-9.21,6.926-11.853
			C151.944,220.624,152.439,222.59,151.604,224.183z"/>
	</g>
	<g>
		<path fill="#ECC19C" d="M270.59,279.507c-1.684,14.757-9.573,28.706-21.351,37.754c-11.779,9.048-27.29,13.074-41.982,10.897
			c6.301,4.847,15.305,4.462,22.782,1.763c7.478-2.7,14.067-7.376,21.275-10.729c7.207-3.354,18.725-9.972,23.05-2.324
			c5.29,9.355-21.084,27.747-37.104,33.844s-34.35,5.874-50.216-0.61c3.835,6.562,11.032,10.603,18.438,12.316
			c7.404,1.715,21.035-2.3,22.703,1.057c2.501,5.035-7.873,12.77-15.098,14.185c-7.226,1.415-14.712-0.53-21.493-3.401
			c-6.78-2.871-13.153-6.672-20.049-9.253c-11.48-4.297-24.249-4.894-36.152-2.006l-47.395,8.624
			c-3.693-3.342-12.637-28.979-15.915-32.73c-2.515-2.877-5.05-6.379-4.44-10.151c0.374-2.31-7.398-15.299-5.944-17.131
			c7.681-9.677,17.671-8.121,27.424-15.705c7.761-6.035,10.237-11.126,16.684-16.908c13.885,0.035,27.894-3.1,41.169-1.126
			c0.698,2.706,1.86,5.249,3.608,7.464c3.813,4.833,10.39,5.663,16.399,6.997c6.061,1.347,13.478,0.523,19.629,0.294
			c40.01-1.494,1.472-65.559,15.899-69.137c23.588-5.852,44.941,81.483-3.45,82.5c21.142,3.552,43.952-7.545,54.208-26.371
			c1.592-2.923,2.958-6.073,5.388-8.349c2.43-2.275,6.349-3.409,9.115-1.557C270.747,271.705,270.996,275.949,270.59,279.507z"/>
		<path fill="#F5E0CD" d="M267.593,331.651c-1.618-1.394-1.915-3.771-0.636-5.352l3.955-4.883c0.98-1.209,2.611-1.617,4.084-1.162
			C274.643,323.635,271.786,327.632,267.593,331.651z"/>
		<path fill="#F5E0CD" d="M264.654,282.435l0.523-6.662c0.173-2.198,2.103-3.856,4.29-3.685c0.124,0.01,0.239,0.045,0.36,0.065
			c1.012,2.14,1.042,4.908,0.764,7.354c-0.277,2.425-0.737,4.824-1.339,7.188c-0.305,0.05-0.616,0.074-0.937,0.049
			C266.129,286.572,264.481,284.633,264.654,282.435z"/>
		<path fill="#F5E0CD" d="M228.55,365.451c-0.244,3.064-3.79,6.606-7.962,9.125c-0.167-1.021,0.061-2.084,0.739-2.922l3.956-4.883
			C226.083,365.782,227.32,365.335,228.55,365.451z"/>
	</g>
	<g>
		<path fill="#F5E0CD" d="M267.593,331.651c-1.618-1.394-1.915-3.771-0.636-5.352l3.955-4.883c0.98-1.209,2.611-1.617,4.084-1.162
			C274.643,323.635,271.786,327.632,267.593,331.651z"/>
		<path fill="#F5E0CD" d="M264.654,282.435l0.523-6.662c0.173-2.198,2.103-3.856,4.29-3.685c0.124,0.01,0.239,0.045,0.36,0.065
			c1.012,2.14,1.042,4.908,0.764,7.354c-0.277,2.425-0.737,4.824-1.339,7.188c-0.305,0.05-0.616,0.074-0.937,0.049
			C266.129,286.572,264.481,284.633,264.654,282.435z"/>
		<path fill="#F5E0CD" d="M228.55,365.451c-0.244,3.064-3.79,6.606-7.962,9.125c-0.167-1.021,0.061-2.084,0.739-2.922l3.956-4.883
			C226.083,365.782,227.32,365.335,228.55,365.451z"/>
	</g>
	<g>
		<polygon fill="#FFFFFF" points="62.466,302.632 40.566,319.918 107.183,387.486 124.963,373.772 		"/>
		<g>
			<path fill="#231F20" d="M42.688,307.916L0,344.701V411h95.061l21.355-18.494C86.024,357.679,68.764,337.798,42.688,307.916z"/>
			<polygon fill="#353635" points="42.771,307.931 0,343.646 0,411 10.396,411 80.19,350.811 			"/>
		</g>
	</g>
	<path fill="#F5E0CD" d="M207.987,223.745c-1.462,1.776-1.593,4.09-0.14,5.465l4.946,4.683c1.47,1.393,4.033,1.338,6.002-0.012
		C215.65,228.758,211.932,225.069,207.987,223.745z"/>
</g>
<g>
	<path fill="#ECC19C" d="M523.708,194.018c-12.752,0.369-57.015-0.256-64.711,0.2c-1.015,0.061-4.993-6.565-6.639-7.799
		c0,0-4.408-2.619-9.69-6.233c-12.504-8.554-23.585-21.694-28.494-28.919c-7.374-10.854,0.905-36.232-3.517-39.554
		c-9.926-7.455-34.055,12.979-26.718,39.702c1.69,6.155,4.928,13.298,4.898,19.68c-0.057,12.477-10.758,13.245-14.204,13.017
		l-31.746,0.319c-8.979,0.09-16.315,4.655-16.306,10.145l0.014,7.11c0.009,5.488,7.423,9.503,16.4,9.413l24.679,0.154l0.013,0.239
		l-32.746,0.579c-9.914,0.104-18.076,4.446-18.074,9.936l0.003,7.109c0.002,5.49,8.21,9.439,18.124,9.336l34.13,0.097l0.011,0.194
		l-28.031,0.52c-9.338,0.096-16.905,4.432-16.897,9.921l0.009,7.11c0.008,5.488,7.55,9.607,16.889,9.512l29.469-0.006l0.01,0.178
		l-20.775,0.531c-8.144,0.081-14.631,3.896-14.621,8.874l0.011,6.448c0.01,4.979,6.68,8.875,14.824,8.902
		c64.71,0.22,96.666,3.677,104.444-8.844c1.598-2.572,8.405-9.039,9.58-10.834c8.657-0.134,54.813-0.037,61.55-0.234
		C525.067,253.376,525.241,217.273,523.708,194.018z"/>
	<g>
		<polygon fill="#FFFFFF" points="501.665,287.95 534.979,289.595 528.086,176.367 501.291,174.743 		"/>
		<g>
			<path fill="#231F20" d="M523.635,298.737L638,298.717V164.34l-114.284,0.248C523.716,219.849,523.635,251.324,523.635,298.737z"
				/>
			<rect x="523.571" y="230.62" fill="#353635" width="114.429" height="68.038"/>
		</g>
	</g>
</g>
</svg>
